<svg enable-background="new 0 0 45 45" viewBox="0 0 45 45" xmlns="http://www.w3.org/2000/svg" xmlns:xlink="http://www.w3.org/1999/xlink"><clipPath id="a"><path d="m0 36h36v-36h-36z"/></clipPath><g clip-path="url(#a)" fill="#ffffff" transform="matrix(1.25 0 0 -1.25 0 45)"><path d="m0 0 6 6s6 6 12 0 0-12 0-12l-8-8s-6-6-12 0c-1.125 1.125-1.822 2.62-1.822 2.62l3.353 3.348s-.135-1.364 1.469-2.968c0 0 3-3 6 0l8 8s3 3 0 6-6 0-6 0l-3.729-3.729s-1.854 1.521-5.646.354z" transform="translate(15 27)"/><path d="m0 0-6-6s-6-6-12 0 0 12 0 12l8 8s6 6 12 0c1.125-1.125 1.822-2.62 1.822-2.62l-3.353-3.349s.135 1.365-1.469 2.969c0 0-3 3-6 0s-8-8-8-8-3-3 0-6 6 0 6 0l3.729 3.73s1.854-1.521 5.646-.355z" transform="translate(20.8447 9)"/></g></svg>