<svg width="500" height="500" viewBox="0 0 500 500" xmlns="http://www.w3.org/2000/svg"><g id="email" stroke="none" stroke-width="1" fill="#FFF" fill-rule="nonzero"><path d="M81.471 126.157L224.814 239.7c6.5 5.143 15.457 7.429 24.157 7 8.686.429 17.643-1.843 24.143-7l143.343-113.543c11.486-9.043 8.886-16.457-5.686-16.457H87.2c-14.586 0-17.186 7.414-5.729 16.457z" id="Shape"/><path d="M426.814 156.114L270.171 275.043c-5.857 4.4-13.528 6.543-21.171 6.443-7.657.1-15.329-2.057-21.186-6.443L71.143 156.114C59.514 147.3 50 152.03 50 166.614v195.129c0 14.586 11.943 26.528 26.529 26.528h344.9c14.585 0 26.528-11.942 26.528-26.528V166.614c0-14.585-9.514-19.314-21.143-10.5z" id="Shape"/></g></svg>