<svg width="500" height="500" viewBox="0 0 500 500" xmlns="http://www.w3.org/2000/svg"><g id="facebook" stroke="none" stroke-width="1" fill="none" fill-rule="evenodd"><path d="M347.274 50.082L295.872 50c-57.748 0-95.068 38.289-95.068 97.55v44.978h-51.682a8.083 8.083 0 00-8.083 8.086v65.167a8.082 8.082 0 008.083 8.083h51.682V438.3a8.08 8.08 0 008.083 8.083h67.43a8.082 8.082 0 008.083-8.083V273.864h60.429a8.08 8.08 0 008.082-8.083l.025-65.167a8.095 8.095 0 00-2.367-5.715 8.084 8.084 0 00-5.72-2.371H284.4V154.4c0-18.326 4.367-27.629 28.24-27.629l34.626-.012c4.462 0 8.078-3.62 8.078-8.083V58.165a8.085 8.085 0 00-8.07-8.083z" id="Shape" fill="#FFF" fill-rule="nonzero"/></g></svg>