<svg width="500" height="500" viewBox="0 0 500 500" xmlns="http://www.w3.org/2000/svg"><g id="linkedin" stroke="none" stroke-width="1" fill="none" fill-rule="evenodd"><path d="M458.366 295.187v154.386h-89.503V305.527c0-36.185-12.946-60.88-45.343-60.88-24.73 0-39.448 16.642-45.923 32.741-2.361 5.756-2.969 13.766-2.969 21.823v150.362h-89.533s1.206-243.966 0-269.243h89.524v38.164c-.181.286-.417.593-.588.87h.588v-.87c11.895-18.32 33.136-44.49 80.682-44.49 58.906 0 103.065 38.482 103.065 121.183zM91.44 50.542c-30.63 0-50.663 20.09-50.663 46.51 0 25.843 19.454 46.543 49.474 46.543h.599c31.222 0 50.64-20.696 50.64-46.544-.589-26.419-19.418-46.51-50.05-46.51zm-45.346 399.03h89.5V180.33h-89.5v269.243z" id="LinkedIn" fill="#FFF" fill-rule="nonzero"/></g></svg>