<svg width="500" height="500" viewBox="0 0 500 500" xmlns="http://www.w3.org/2000/svg"><g id="twitter" stroke="none" stroke-width="1" fill="none" fill-rule="evenodd"><path d="M494.5 98.049c-18.03 7.994-37.4 13.398-57.733 15.828 20.753-12.44 36.691-32.14 44.198-55.613a201.234 201.234 0 01-63.833 24.392c-18.335-19.535-44.46-31.741-73.372-31.741-55.513 0-100.519 45.004-100.519 100.516 0 7.878.89 15.55 2.603 22.908-83.54-4.194-157.609-44.21-207.186-105.027-8.652 14.846-13.61 32.113-13.61 50.535 0 34.875 17.745 65.642 44.718 83.668a100.11 100.11 0 01-45.529-12.573c-.01.419-.01.84-.01 1.264 0 48.702 34.65 89.328 80.633 98.564a100.712 100.712 0 01-26.482 3.529c-6.478 0-12.774-.632-18.913-1.807 12.792 39.933 49.914 68.999 93.9 69.808-34.401 26.962-77.744 43.03-124.84 43.03-8.114 0-16.114-.474-23.979-1.408 44.485 28.524 97.322 45.165 154.087 45.165 184.891 0 285.999-153.17 285.999-286.002 0-4.358-.1-8.693-.292-13.005 19.642-14.17 36.684-31.874 50.16-52.031z" id="Shape" fill="#FFF" fill-rule="nonzero"/></g></svg>