<?xml version="1.0" encoding="UTF-8"?>
<svg width="500px" height="500px" viewBox="0 0 500 500" version="1.1" xmlns="http://www.w3.org/2000/svg" xmlns:xlink="http://www.w3.org/1999/xlink">
    <!-- Generator: Sketch 51.2 (57519) - http://www.bohemiancoding.com/sketch -->
    <title>email</title>
    <desc>Created with Sketch.</desc>
    <defs></defs>
    <g id="email" stroke="none" stroke-width="1" fill="none" fill-rule="evenodd">
        <path d="M81.4714286,126.157143 L224.814286,239.7 C231.314286,244.842857 240.271429,247.128571 248.971429,246.7 C257.657143,247.128571 266.614286,244.857143 273.114286,239.7 L416.457143,126.157143 C427.942857,117.114286 425.342857,109.7 410.771429,109.7 L248.985714,109.7 L87.2,109.7 C72.6142857,109.7 70.0142857,117.114286 81.4714286,126.157143 Z" id="Shape" fill="#FFFFFF" fill-rule="nonzero"></path>
        <path d="M426.814286,156.114286 L270.171429,275.042857 C264.314286,279.442857 256.642857,281.585714 249,281.485714 C241.342857,281.585714 233.671429,279.428571 227.814286,275.042857 L71.1428571,156.114286 C59.5142857,147.3 50,152.028571 50,166.614286 L50,361.742857 C50,376.328571 61.9428571,388.271429 76.5285714,388.271429 L248.971429,388.271429 L421.428571,388.271429 C436.014286,388.271429 447.957143,376.328571 447.957143,361.742857 L447.957143,166.614286 C447.957143,152.028571 438.442857,147.3 426.814286,156.114286 Z" id="Shape" fill="#FFFFFF" fill-rule="nonzero"></path>
    </g>
</svg>