<?xml version="1.0" encoding="UTF-8"?>
<svg width="500px" height="500px" viewBox="0 0 500 500" version="1.1" xmlns="http://www.w3.org/2000/svg" xmlns:xlink="http://www.w3.org/1999/xlink">
    <!-- Generator: Sketch 51.2 (57519) - http://www.bohemiancoding.com/sketch -->
    <title>facebook</title>
    <desc>Created with Sketch.</desc>
    <defs></defs>
    <g id="facebook" stroke="none" stroke-width="1" fill="none" fill-rule="evenodd">
        <path d="M347.274227,50.0824742 L295.872165,50 C238.123711,50 200.804124,88.2886598 200.804124,147.550515 L200.804124,192.527835 L149.121649,192.527835 C144.65567,192.527835 141.039175,196.148454 141.039175,200.614433 L141.039175,265.781443 C141.039175,270.247423 144.659794,273.863918 149.121649,273.863918 L200.804124,273.863918 L200.804124,438.301031 C200.804124,442.76701 204.420619,446.383505 208.886598,446.383505 L276.317526,446.383505 C280.783505,446.383505 284.4,442.762887 284.4,438.301031 L284.4,273.863918 L344.828866,273.863918 C349.294845,273.863918 352.91134,270.247423 352.91134,265.781443 L352.936082,200.614433 C352.936082,198.470103 352.082474,196.416495 350.569072,194.898969 C349.05567,193.381443 346.993814,192.527835 344.849485,192.527835 L284.4,192.527835 L284.4,154.4 C284.4,136.074227 288.76701,126.771134 312.639175,126.771134 L347.265979,126.758763 C351.727835,126.758763 355.34433,123.138144 355.34433,118.676289 L355.34433,58.1649485 C355.34433,53.7072165 351.731959,50.0907216 347.274227,50.0824742 Z" id="Shape" fill="#FFFFFF" fill-rule="nonzero"></path>
    </g>
</svg>