<?xml version="1.0" encoding="UTF-8"?>
<svg width="500px" height="500px" viewBox="0 0 500 500" version="1.1" xmlns="http://www.w3.org/2000/svg" xmlns:xlink="http://www.w3.org/1999/xlink">
    <!-- Generator: Sketch 51.2 (57519) - http://www.bohemiancoding.com/sketch -->
    <title>linkedin</title>
    <desc>Created with Sketch.</desc>
    <defs></defs>
    <g id="linkedin" stroke="none" stroke-width="1" fill="none" fill-rule="evenodd">
        <path d="M458.366019,295.187379 L458.366019,449.572816 L368.863107,449.572816 L368.863107,305.527184 C368.863107,269.341748 355.917476,244.646602 323.520388,244.646602 C298.78932,244.646602 284.071845,261.28932 277.597087,277.38835 C275.235922,283.143689 274.628155,291.154369 274.628155,299.21068 L274.628155,449.572816 L185.095146,449.572816 C185.095146,449.572816 186.300971,205.606796 185.095146,180.330097 L274.619417,180.330097 L274.619417,218.494175 C274.437864,218.779612 274.201942,219.087379 274.031068,219.364078 L274.619417,219.364078 L274.619417,218.494175 C286.513592,200.174757 307.75534,174.004854 355.300971,174.004854 C414.206796,174.003883 458.366019,212.486408 458.366019,295.187379 Z M91.4398058,50.5417476 C60.8106796,50.5417476 40.776699,70.6320388 40.776699,97.0514563 C40.776699,122.895146 60.231068,143.595146 90.2514563,143.595146 L90.8495146,143.595146 C122.071845,143.595146 141.48932,122.899029 141.48932,97.0514563 C140.900971,70.6320388 122.071845,50.5417476 91.4398058,50.5417476 Z M46.0941748,449.572816 L135.593204,449.572816 L135.593204,180.330097 L46.0941748,180.330097 L46.0941748,449.572816 Z" id="LinkedIn" fill="#FFFFFF" fill-rule="nonzero"></path>
    </g>
</svg>