<?xml version="1.0" encoding="UTF-8"?>
<svg width="500px" height="500px" viewBox="0 0 500 500" version="1.1" xmlns="http://www.w3.org/2000/svg" xmlns:xlink="http://www.w3.org/1999/xlink">
    <!-- Generator: Sketch 51.2 (57519) - http://www.bohemiancoding.com/sketch -->
    <title>twitter</title>
    <desc>Created with Sketch.</desc>
    <defs></defs>
    <g id="twitter" stroke="none" stroke-width="1" fill="none" fill-rule="evenodd">
        <path d="M494.499522,98.0488038 C476.470813,106.043062 457.100478,111.44689 436.767464,113.876555 C457.519617,101.436364 473.458373,81.737799 480.964593,58.2641148 C461.539713,69.784689 440.029665,78.1492823 417.132057,82.6564593 C398.797129,63.1205742 372.67177,50.9148325 343.759809,50.9148325 C288.24689,50.9148325 243.241148,95.9186603 243.241148,151.430622 C243.241148,159.309091 244.130144,166.980861 245.844019,174.338756 C162.303349,170.145455 88.2354067,130.12823 38.6583732,69.3119617 C30.0057416,84.1578947 25.0478469,101.42488 25.0478469,119.84689 C25.0478469,154.721531 42.7933014,185.488995 69.7655502,203.514833 C53.2880383,202.992344 37.7885167,198.470813 24.2373206,190.941627 C24.2277512,191.360766 24.2277512,191.781818 24.2277512,192.205742 C24.2277512,240.908134 58.877512,281.533971 104.860287,290.770335 C96.4267943,293.066029 87.5454545,294.298565 78.3779904,294.298565 C71.9004785,294.298565 65.6038278,293.666986 59.4650718,292.491866 C72.2574163,332.42488 109.378947,361.490909 153.36555,362.299522 C118.963636,389.262201 75.6210526,405.330144 28.5253589,405.330144 C20.4114833,405.330144 12.4105263,404.855502 4.54641148,403.922488 C49.030622,432.445933 101.867943,449.087081 158.633493,449.087081 C343.524402,449.087081 444.631579,295.917703 444.631579,163.085167 C444.631579,158.727273 444.532057,154.392344 444.339713,150.080383 C463.981818,135.909091 481.023923,118.205742 494.499522,98.0488038 Z" id="Shape" fill="#FFFFFF" fill-rule="nonzero"></path>
    </g>
</svg>